<svg id="visual" viewBox="0 0 900 600" width="900" height="600" xmlns="http://www.w3.org/2000/svg" xmlns:xlink="http://www.w3.org/1999/xlink" version="1.1"><rect x="0" y="0" width="900" height="600" fill="#282c34"></rect><path d="M0 141L13.7 152.8C27.3 164.7 54.7 188.3 82 199.5C109.3 210.7 136.7 209.3 163.8 224.3C191 239.3 218 270.7 245.2 280.5C272.3 290.3 299.7 278.7 327 254.7C354.3 230.7 381.7 194.3 409 170.5C436.3 146.7 463.7 135.3 491 147.2C518.3 159 545.7 194 573 212.7C600.3 231.3 627.7 233.7 654.8 227.7C682 221.7 709 207.3 736.2 217C763.3 226.7 790.7 260.3 818 267.3C845.3 274.3 872.7 254.7 886.3 244.8L900 235L900 0L886.3 0C872.7 0 845.3 0 818 0C790.7 0 763.3 0 736.2 0C709 0 682 0 654.8 0C627.7 0 600.3 0 573 0C545.7 0 518.3 0 491 0C463.7 0 436.3 0 409 0C381.7 0 354.3 0 327 0C299.7 0 272.3 0 245.2 0C218 0 191 0 163.8 0C136.7 0 109.3 0 82 0C54.7 0 27.3 0 13.7 0L0 0Z" fill="#FBAE3C" stroke-linecap="round" stroke-linejoin="miter"></path></svg>